<?xml version="1.0" encoding="UTF-8"?>
<svg id="Layer_1" xmlns="http://www.w3.org/2000/svg" viewBox="0 0 1097.71 33.34">
  <defs>
    <style>
      .cls-1 {
        fill: #fff;
      }
    </style>
  </defs>
  <path class="cls-1" d="M0,.45h4.25v10.44h10.91V.45h4.25v25.2h-4.25v-11.23H4.25v11.23H0S0,.45,0,.45Z"/>
  <path class="cls-1" d="M35.14,25.65c-.1-.17-.18-.46-.25-.86-.07-.41-.11-.85-.11-1.33-.55.79-1.25,1.43-2.11,1.93-.85.49-1.96.74-3.33.74-1.73,0-3.11-.43-4.16-1.3-1.04-.86-1.57-2.05-1.57-3.56,0-1.15.31-2.11.92-2.86.61-.76,1.43-1.36,2.45-1.82,1.02-.46,2.2-.78,3.53-.97,1.33-.19,2.73-.29,4.19-.29v-1.08c0-.91-.25-1.65-.76-2.21-.5-.56-1.3-.85-2.38-.85s-1.88.26-2.41.79c-.53.53-.8,1.15-.83,1.87l-3.96-.58c.1-.84.35-1.58.77-2.21.42-.64.96-1.17,1.62-1.6.66-.43,1.42-.76,2.27-.99.85-.23,1.75-.34,2.68-.34,1.03,0,1.97.13,2.83.4.85.26,1.58.65,2.2,1.17s1.09,1.16,1.44,1.93c.35.77.52,1.67.52,2.7v9c0,.53.04.97.11,1.31.07.35.17.69.29,1.03h-3.96v-.02ZM30.46,23.1c.53,0,1.05-.08,1.57-.25s.97-.41,1.37-.74c.4-.32.71-.71.95-1.17s.36-.98.36-1.58v-1.4c-2.11,0-3.82.23-5.11.68-1.3.46-1.94,1.25-1.94,2.38,0,.7.26,1.22.79,1.57s1.2.52,2.02.52h0Z"/>
  <path class="cls-1" d="M53.79,12.3c-.26-.22-.57-.38-.92-.49s-.7-.16-1.06-.16c-.5,0-1,.11-1.49.32-.49.22-.94.55-1.33.99-.4.44-.71,1.01-.95,1.69s-.36,1.48-.36,2.39v8.6h-4.1V8.58h3.85v2.77c.48-1.08,1.15-1.89,2-2.43s1.87-.81,3.04-.81c.34,0,.7.03,1.08.09.38.06.74.16,1.08.31l-.83,3.78h-.01Z"/>
  <path class="cls-1" d="M55.88,8.59h4.32c.65,1.99,1.26,3.85,1.84,5.58.24.74.49,1.49.74,2.25s.49,1.48.7,2.16c.22.68.41,1.31.59,1.87.18.56.32,1.01.41,1.35h.07c.1-.34.23-.79.41-1.35.18-.56.38-1.19.59-1.87.22-.68.45-1.4.7-2.16s.5-1.51.74-2.25c.58-1.73,1.2-3.59,1.87-5.58h4.03l-6.23,17.06h-4.5l-6.3-17.06h.02Z"/>
  <path class="cls-1" d="M85.72,25.65c-.1-.17-.18-.46-.25-.86-.07-.41-.11-.85-.11-1.33-.55.79-1.25,1.43-2.11,1.93-.85.49-1.96.74-3.33.74-1.73,0-3.11-.43-4.16-1.3-1.04-.86-1.57-2.05-1.57-3.56,0-1.15.31-2.11.92-2.86.61-.76,1.43-1.36,2.45-1.82s2.2-.78,3.53-.97c1.33-.19,2.73-.29,4.19-.29v-1.08c0-.91-.25-1.65-.76-2.21-.5-.56-1.3-.85-2.38-.85s-1.88.26-2.41.79c-.53.53-.8,1.15-.83,1.87l-3.96-.58c.1-.84.35-1.58.77-2.21.42-.64.96-1.17,1.62-1.6s1.42-.76,2.27-.99c.85-.23,1.75-.34,2.68-.34,1.03,0,1.97.13,2.83.4.85.26,1.58.65,2.2,1.17s1.09,1.16,1.44,1.93c.35.77.52,1.67.52,2.7v9c0,.53.04.97.11,1.31.07.35.17.69.29,1.03h-3.96v-.02ZM81.04,23.1c.53,0,1.05-.08,1.57-.25s.97-.41,1.37-.74c.4-.32.71-.71.95-1.17s.36-.98.36-1.58v-1.4c-2.11,0-3.82.23-5.11.68-1.3.46-1.94,1.25-1.94,2.38,0,.7.26,1.22.79,1.57s1.2.52,2.02.52h0Z"/>
  <path class="cls-1" d="M104.37,12.3c-.26-.22-.57-.38-.92-.49-.35-.11-.7-.16-1.06-.16-.5,0-1,.11-1.49.32-.49.22-.94.55-1.33.99-.4.44-.71,1.01-.95,1.69-.24.68-.36,1.48-.36,2.39v8.6h-4.1V8.58h3.85v2.77c.48-1.08,1.15-1.89,2-2.43s1.87-.81,3.04-.81c.34,0,.7.03,1.08.09s.74.16,1.08.31l-.83,3.78h0Z"/>
  <path class="cls-1" d="M114.05,8.12c1.27,0,2.35.26,3.22.77.88.52,1.57,1.13,2.07,1.85V.44h4.07v25.2h-3.89v-2.52c-.24.38-.53.76-.86,1.12-.34.36-.73.68-1.19.95-.46.28-.98.5-1.57.67-.59.17-1.25.25-2,.25-1.08,0-2.09-.21-3.02-.63-.94-.42-1.75-1.02-2.43-1.8s-1.22-1.72-1.62-2.83c-.4-1.1-.59-2.35-.59-3.74s.2-2.64.59-3.74c.4-1.1.95-2.05,1.66-2.83.71-.78,1.54-1.38,2.48-1.8.95-.42,1.97-.63,3.08-.63h0ZM119.34,16.22c0-.89-.14-1.64-.43-2.27-.29-.62-.65-1.13-1.08-1.51-.43-.38-.91-.66-1.44-.83-.53-.17-1.03-.25-1.51-.25-.7,0-1.31.14-1.85.43s-1,.69-1.39,1.21c-.38.52-.68,1.13-.88,1.84-.2.71-.31,1.47-.31,2.29s.1,1.61.31,2.3c.2.7.49,1.3.86,1.82s.82.92,1.35,1.21,1.13.43,1.8.43c.5,0,1.02-.08,1.55-.25s1.02-.44,1.48-.83c.46-.38.83-.88,1.12-1.49s.43-1.37.43-2.29v-1.8h0Z"/>
  <path class="cls-1" d="M140.69,22.63c1.18,0,1.99-.43,2.45-1.3.46-.86.68-2.2.68-4V.45h4.28v16.88c0,1.27-.1,2.44-.31,3.51-.2,1.07-.58,1.99-1.12,2.77s-1.28,1.39-2.21,1.84c-.94.44-2.15.67-3.64.67-1.7,0-3.05-.27-4.05-.81-1-.54-1.83-1.23-2.5-2.07l2.81-2.77c.6.7,1.16,1.23,1.67,1.6.52.37,1.16.56,1.93.56h.01Z"/>
  <path class="cls-1" d="M160.67,8.12c1.32,0,2.51.22,3.56.65,1.06.43,1.96,1.04,2.7,1.84.74.79,1.31,1.74,1.71,2.84.4,1.1.59,2.33.59,3.67s-.2,2.57-.59,3.67-.97,2.05-1.71,2.84-1.64,1.4-2.7,1.84c-1.06.43-2.24.65-3.56.65s-2.51-.22-3.56-.65c-1.06-.43-1.95-1.04-2.68-1.84-.73-.79-1.3-1.74-1.69-2.84s-.59-2.33-.59-3.67.2-2.57.59-3.67c.4-1.1.96-2.05,1.69-2.84s1.63-1.4,2.68-1.84c1.06-.43,2.24-.65,3.56-.65ZM160.67,22.99c.74,0,1.39-.16,1.94-.47s1.01-.73,1.37-1.26.63-1.15.81-1.85c.18-.71.27-1.47.27-2.29s-.09-1.58-.27-2.29c-.18-.71-.45-1.33-.81-1.85s-.82-.95-1.37-1.26c-.55-.31-1.2-.47-1.94-.47s-1.39.16-1.93.47-.99.73-1.35,1.26-.63,1.15-.81,1.85c-.18.71-.27,1.47-.27,2.29s.09,1.58.27,2.29c.18.71.45,1.33.81,1.85.36.53.81.95,1.35,1.26.54.31,1.18.47,1.93.47Z"/>
  <path class="cls-1" d="M173.23.45h4.1v10.48c.43-.77,1.06-1.43,1.89-1.98s1.93-.83,3.29-.83c.82,0,1.6.12,2.34.36.74.24,1.39.6,1.93,1.08s.97,1.08,1.3,1.8c.32.72.49,1.56.49,2.52v11.77h-4.1v-10.8c0-.6-.09-1.12-.27-1.55-.18-.43-.41-.79-.7-1.06-.29-.28-.62-.47-1.01-.59-.38-.12-.78-.18-1.19-.18-.5,0-1,.11-1.48.32-.48.22-.91.54-1.28.97s-.67.97-.88,1.62-.32,1.39-.32,2.23v9.04h-4.1V.45h0Z"/>
  <path class="cls-1" d="M193.57,8.59h3.92v2.59c.5-.89,1.19-1.62,2.05-2.2s1.97-.86,3.31-.86c.82,0,1.6.12,2.34.36.74.24,1.39.6,1.93,1.08s.97,1.08,1.3,1.8c.32.72.49,1.56.49,2.52v11.77h-4.1v-10.8c0-.6-.09-1.12-.27-1.55-.18-.43-.42-.79-.72-1.06-.3-.28-.64-.47-1.03-.59-.38-.12-.77-.18-1.15-.18-.5,0-1,.11-1.48.32-.48.22-.91.54-1.28.97s-.67.97-.88,1.62-.32,1.39-.32,2.23v9.04h-4.1V8.59h0Z"/>
  <path class="cls-1" d="M242.6,25.65h-4.43l-2.23-6.34h-9.5l-2.23,6.34h-4.18L229.17.45h4.32l9.11,25.2ZM231.12,5.42c-.07.24-.17.57-.31.99-.13.42-.29.9-.47,1.44-.18.54-.37,1.12-.58,1.73-.2.61-.41,1.22-.63,1.82-.48,1.42-1,2.94-1.55,4.57h7.2c-.58-1.63-1.1-3.16-1.58-4.57-.22-.6-.43-1.21-.63-1.82s-.4-1.19-.58-1.73-.34-1.02-.49-1.44c-.14-.42-.25-.75-.32-.99h-.07,0Z"/>
  <path class="cls-1" d="M246.35,23.35c0-.77.25-1.39.76-1.87.5-.48,1.15-.72,1.94-.72s1.44.24,1.94.72.76,1.1.76,1.87-.25,1.39-.76,1.87c-.5.48-1.15.72-1.94.72s-1.44-.24-1.94-.72c-.5-.48-.76-1.1-.76-1.87Z"/>
  <path class="cls-1" d="M269.24,16.08v9.58h-4.25V.46h9.14c1.39,0,2.66.14,3.8.43,1.14.29,2.12.74,2.93,1.37.82.62,1.44,1.42,1.87,2.39s.65,2.14.65,3.51-.23,2.55-.68,3.55c-.46,1-1.09,1.82-1.91,2.47s-1.79,1.13-2.92,1.44c-1.13.31-2.38.47-3.74.47h-4.9.01ZM279.07,8.16c0-1.58-.46-2.68-1.37-3.29s-2.32-.92-4.21-.92h-4.25v8.68h4.25c1.87,0,3.27-.35,4.19-1.06.92-.71,1.39-1.84,1.39-3.4h0Z"/>
  <path class="cls-1" d="M296.57,25.65c-.1-.17-.18-.46-.25-.86-.07-.41-.11-.85-.11-1.33-.55.79-1.25,1.43-2.11,1.93-.85.49-1.96.74-3.33.74-1.73,0-3.11-.43-4.16-1.3-1.04-.86-1.57-2.05-1.57-3.56,0-1.15.31-2.11.92-2.86.61-.76,1.43-1.36,2.45-1.82,1.02-.46,2.2-.78,3.53-.97,1.33-.19,2.73-.29,4.19-.29v-1.08c0-.91-.25-1.65-.76-2.21-.5-.56-1.3-.85-2.38-.85s-1.88.26-2.41.79c-.53.53-.8,1.15-.83,1.87l-3.96-.58c.1-.84.35-1.58.77-2.21.42-.64.96-1.17,1.62-1.6s1.42-.76,2.27-.99c.85-.23,1.75-.34,2.68-.34,1.03,0,1.97.13,2.83.4.85.26,1.58.65,2.2,1.17s1.09,1.16,1.44,1.93.52,1.67.52,2.7v9c0,.53.04.97.11,1.31.07.35.17.69.29,1.03h-3.96v-.02ZM291.89,23.1c.53,0,1.05-.08,1.57-.25.52-.17.97-.41,1.37-.74.4-.32.71-.71.95-1.17.24-.46.36-.98.36-1.58v-1.4c-2.11,0-3.82.23-5.11.68-1.3.46-1.94,1.25-1.94,2.38,0,.7.26,1.22.79,1.57s1.2.52,2.02.52h-.01Z"/>
  <path class="cls-1" d="M319.97,25.65h-3.89v-2.56c-.53.89-1.21,1.61-2.05,2.18-.84.56-1.92.85-3.24.85-.82,0-1.58-.12-2.3-.36s-1.35-.6-1.89-1.08c-.54-.48-.97-1.07-1.28-1.78s-.47-1.54-.47-2.5v-11.81h4.07v10.8c0,1.22.32,2.09.95,2.61.64.52,1.35.77,2.14.77.5,0,.99-.11,1.46-.32.47-.22.88-.54,1.24-.97s.65-.97.86-1.62c.22-.65.32-1.39.32-2.23v-9.04h4.07v17.06h0Z"/>
  <path class="cls-1" d="M325.15.45h4.1v25.2h-4.1s0-25.2,0-25.2Z"/>
  <path class="cls-1" d="M337.54,13.12c0,.77.32,1.3.97,1.58s1.5.52,2.56.68c.89.12,1.74.29,2.56.52s1.53.54,2.14.94c.61.4,1.1.9,1.48,1.51.37.61.56,1.36.56,2.25,0,1.73-.67,3.08-2,4.05s-3.11,1.46-5.35,1.46c-2.11,0-3.84-.44-5.18-1.31-1.34-.88-2.11-2.15-2.3-3.83l3.96-.58c.1.96.46,1.66,1.08,2.09s1.45.65,2.48.65c.96,0,1.73-.18,2.32-.54s.88-.92.88-1.69c0-.67-.28-1.17-.83-1.49-.55-.32-1.54-.59-2.95-.81-.98-.14-1.87-.34-2.66-.59s-1.47-.58-2.03-.97c-.56-.4-1-.89-1.31-1.48s-.47-1.3-.47-2.14c0-.89.19-1.67.58-2.34.38-.67.9-1.22,1.55-1.66.65-.43,1.4-.76,2.25-.97.85-.22,1.73-.32,2.65-.32s1.81.11,2.63.32,1.54.52,2.16.92c.62.4,1.13.89,1.53,1.48s.65,1.24.77,1.96l-3.96.83c-.12-.82-.44-1.45-.97-1.89s-1.27-.67-2.23-.67c-.79,0-1.46.17-2.02.52-.55.35-.83.86-.83,1.53h-.02Z"/>
  <path class="cls-1" d="M359.1,8.12c1.32,0,2.51.22,3.56.65,1.06.43,1.96,1.04,2.7,1.84.74.79,1.31,1.74,1.71,2.84s.59,2.33.59,3.67-.2,2.57-.59,3.67-.97,2.05-1.71,2.84-1.64,1.4-2.7,1.84c-1.06.43-2.24.65-3.56.65s-2.51-.22-3.56-.65c-1.06-.43-1.95-1.04-2.68-1.84-.73-.79-1.3-1.74-1.69-2.84s-.59-2.33-.59-3.67.2-2.57.59-3.67c.4-1.1.96-2.05,1.69-2.84s1.63-1.4,2.68-1.84c1.06-.43,2.24-.65,3.56-.65ZM359.1,22.99c.74,0,1.39-.16,1.94-.47s1.01-.73,1.37-1.26.63-1.15.81-1.85c.18-.71.27-1.47.27-2.29s-.09-1.58-.27-2.29-.45-1.33-.81-1.85-.82-.95-1.37-1.26c-.55-.31-1.2-.47-1.94-.47s-1.39.16-1.93.47c-.54.31-.99.73-1.35,1.26-.36.53-.63,1.15-.81,1.85-.18.71-.27,1.47-.27,2.29s.09,1.58.27,2.29.45,1.33.81,1.85c.36.53.81.95,1.35,1.26.54.31,1.18.47,1.93.47Z"/>
  <path class="cls-1" d="M371.66,8.59h3.92v2.59c.5-.89,1.19-1.62,2.05-2.2s1.97-.86,3.31-.86c.82,0,1.6.12,2.34.36s1.39.6,1.93,1.08.97,1.08,1.3,1.8c.32.72.49,1.56.49,2.52v11.77h-4.1v-10.8c0-.6-.09-1.12-.27-1.55s-.42-.79-.72-1.06c-.3-.28-.64-.47-1.03-.59-.38-.12-.77-.18-1.15-.18-.5,0-1,.11-1.48.32-.48.22-.91.54-1.28.97s-.67.97-.88,1.62-.32,1.39-.32,2.23v9.04h-4.1V8.59h0Z"/>
  <path class="cls-1" d="M404.1,6.97c0,.6.1,1.1.31,1.51.2.41.54.76,1.01,1.06.47.3,1.08.56,1.84.77.76.22,1.67.41,2.75.58,1.44.24,2.71.55,3.82.94,1.1.38,2.03.87,2.77,1.46s1.3,1.3,1.67,2.12c.37.83.56,1.82.56,2.97s-.23,2.21-.7,3.17-1.12,1.78-1.96,2.45c-.84.67-1.85,1.19-3.04,1.57-1.19.37-2.51.56-3.98.56-1.56,0-2.95-.2-4.16-.61-1.21-.41-2.24-.95-3.1-1.64-.85-.68-1.51-1.49-1.96-2.41-.46-.92-.71-1.9-.76-2.93l4.21-.65c.05.62.19,1.23.43,1.82s.59,1.1,1.06,1.55c.47.44,1.05.8,1.75,1.06.7.26,1.54.4,2.52.4,1.61,0,2.89-.34,3.85-1.03.96-.68,1.44-1.7,1.44-3.04,0-.58-.1-1.08-.31-1.51-.2-.43-.53-.81-.99-1.13s-1.06-.6-1.8-.83c-.74-.23-1.66-.43-2.74-.59-1.34-.19-2.56-.46-3.65-.81-1.09-.35-2.02-.8-2.79-1.37-.77-.56-1.36-1.26-1.78-2.09s-.63-1.82-.63-2.97.22-2.22.67-3.13c.44-.91,1.07-1.68,1.89-2.3s1.78-1.1,2.9-1.42,2.35-.49,3.69-.49c2.57,0,4.69.59,6.35,1.78,1.67,1.19,2.71,2.85,3.11,4.99l-4.28.97c-.19-1.34-.72-2.4-1.58-3.17-.86-.77-2.1-1.15-3.71-1.15s-2.76.32-3.53.97-1.15,1.51-1.15,2.59v-.02Z"/>
  <path class="cls-1" d="M421.99,17.12c0-1.34.2-2.57.59-3.67.4-1.1.96-2.05,1.69-2.84s1.62-1.4,2.66-1.84c1.04-.43,2.23-.65,3.55-.65.98,0,1.85.12,2.61.36.76.24,1.42.57,2,.99.58.42,1.06.92,1.46,1.49s.74,1.2,1.03,1.87l-3.71,1.4c-.24-.91-.65-1.63-1.24-2.14-.59-.52-1.36-.77-2.32-.77-.72,0-1.34.16-1.85.49-.52.32-.94.75-1.28,1.28s-.58,1.15-.74,1.85c-.16.71-.23,1.43-.23,2.18s.08,1.46.23,2.14c.16.68.4,1.3.74,1.84s.76.97,1.28,1.3c.52.32,1.15.49,1.89.49,1.01,0,1.77-.26,2.29-.79.52-.53.93-1.18,1.24-1.94l3.78,1.44c-.34.62-.73,1.21-1.17,1.76s-.95,1.03-1.53,1.44-1.24.73-1.98.97c-.74.24-1.6.36-2.56.36-1.3,0-2.46-.22-3.49-.65s-1.91-1.04-2.65-1.82c-.73-.78-1.3-1.72-1.69-2.83-.4-1.1-.59-2.34-.59-3.71h0Z"/>
  <path class="cls-1" d="M440.96.45h4.1v10.48c.43-.77,1.06-1.43,1.89-1.98.83-.55,1.93-.83,3.29-.83.82,0,1.6.12,2.34.36s1.39.6,1.93,1.08.97,1.08,1.3,1.8c.32.72.49,1.56.49,2.52v11.77h-4.1v-10.8c0-.6-.09-1.12-.27-1.55s-.41-.79-.7-1.06c-.29-.28-.62-.47-1.01-.59-.38-.12-.78-.18-1.19-.18-.5,0-1,.11-1.48.32-.48.22-.91.54-1.28.97s-.67.97-.88,1.62-.32,1.39-.32,2.23v9.04h-4.1V.45h0Z"/>
  <path class="cls-1" d="M468.64,8.12c1.32,0,2.51.22,3.56.65,1.06.43,1.96,1.04,2.7,1.84.74.79,1.31,1.74,1.71,2.84s.59,2.33.59,3.67-.2,2.57-.59,3.67-.97,2.05-1.71,2.84c-.74.79-1.64,1.4-2.7,1.84-1.06.43-2.24.65-3.56.65s-2.51-.22-3.56-.65c-1.06-.43-1.95-1.04-2.68-1.84-.73-.79-1.3-1.74-1.69-2.84s-.59-2.33-.59-3.67.2-2.57.59-3.67c.4-1.1.96-2.05,1.69-2.84s1.63-1.4,2.68-1.84c1.06-.43,2.24-.65,3.56-.65h0ZM468.64,22.99c.74,0,1.39-.16,1.94-.47s1.01-.73,1.37-1.26.63-1.15.81-1.85c.18-.71.27-1.47.27-2.29s-.09-1.58-.27-2.29-.45-1.33-.81-1.85-.82-.95-1.37-1.26c-.55-.31-1.2-.47-1.94-.47s-1.39.16-1.93.47c-.54.31-.99.73-1.35,1.26-.36.53-.63,1.15-.81,1.85-.18.71-.27,1.47-.27,2.29s.09,1.58.27,2.29.45,1.33.81,1.85c.36.53.81.95,1.35,1.26.54.31,1.18.47,1.93.47Z"/>
  <path class="cls-1" d="M488.77,8.12c1.32,0,2.51.22,3.56.65,1.06.43,1.96,1.04,2.7,1.84.74.79,1.31,1.74,1.71,2.84s.59,2.33.59,3.67-.2,2.57-.59,3.67-.97,2.05-1.71,2.84c-.74.79-1.64,1.4-2.7,1.84-1.06.43-2.24.65-3.56.65s-2.51-.22-3.56-.65c-1.06-.43-1.95-1.04-2.68-1.84-.73-.79-1.3-1.74-1.69-2.84s-.59-2.33-.59-3.67.2-2.57.59-3.67c.4-1.1.96-2.05,1.69-2.84s1.63-1.4,2.68-1.84c1.06-.43,2.24-.65,3.56-.65ZM488.77,22.99c.74,0,1.39-.16,1.94-.47s1.01-.73,1.37-1.26.63-1.15.81-1.85c.18-.71.27-1.47.27-2.29s-.09-1.58-.27-2.29-.45-1.33-.81-1.85-.82-.95-1.37-1.26c-.55-.31-1.2-.47-1.94-.47s-1.39.16-1.93.47-.99.73-1.35,1.26-.63,1.15-.81,1.85c-.18.71-.27,1.47-.27,2.29s.09,1.58.27,2.29.45,1.33.81,1.85c.36.53.81.95,1.35,1.26.54.31,1.18.47,1.93.47Z"/>
  <path class="cls-1" d="M501.33.45h4.1v25.2h-4.1s0-25.2,0-25.2Z"/>
  <path class="cls-1" d="M526.06,8.12c1.32,0,2.51.22,3.56.65,1.06.43,1.96,1.04,2.7,1.84.74.79,1.31,1.74,1.71,2.84s.59,2.33.59,3.67-.2,2.57-.59,3.67-.97,2.05-1.71,2.84c-.74.79-1.64,1.4-2.7,1.84-1.06.43-2.24.65-3.56.65s-2.51-.22-3.56-.65c-1.06-.43-1.95-1.04-2.68-1.84-.73-.79-1.3-1.74-1.69-2.84s-.59-2.33-.59-3.67.2-2.57.59-3.67c.4-1.1.96-2.05,1.69-2.84s1.63-1.4,2.68-1.84c1.06-.43,2.24-.65,3.56-.65ZM526.06,22.99c.74,0,1.39-.16,1.94-.47s1.01-.73,1.37-1.26.63-1.15.81-1.85c.18-.71.27-1.47.27-2.29s-.09-1.58-.27-2.29-.45-1.33-.81-1.85-.82-.95-1.37-1.26c-.55-.31-1.2-.47-1.94-.47s-1.39.16-1.93.47-.99.73-1.35,1.26-.63,1.15-.81,1.85c-.18.71-.27,1.47-.27,2.29s.09,1.58.27,2.29.45,1.33.81,1.85c.36.53.81.95,1.35,1.26.54.31,1.18.47,1.93.47Z"/>
  <path class="cls-1" d="M536.29,8.59h2.88v-2.23c0-1.2.18-2.21.54-3.02.36-.82.83-1.47,1.4-1.96.58-.49,1.23-.85,1.96-1.06.73-.22,1.46-.32,2.18-.32.89,0,1.75.11,2.57.34.83.23,1.48.53,1.96.92l-1.69,3.1c-.26-.24-.6-.46-1.01-.67-.41-.2-.89-.31-1.44-.31-.72,0-1.3.23-1.75.68-.44.46-.67,1.21-.67,2.27v2.27h3.85v3.02h-3.85v14.04h-4.07v-14.04h-2.88v-3.02h.02Z"/>
  <path class="cls-1" d="M559,25.65V.45h15.95v3.49h-11.74v6.98h10.94v3.49h-10.94v7.74h11.95v3.49h-16.16Z"/>
  <path class="cls-1" d="M579.38,8.59h3.92v2.59c.5-.89,1.19-1.62,2.05-2.2s1.97-.86,3.31-.86c.82,0,1.6.12,2.34.36.74.24,1.39.6,1.93,1.08s.97,1.08,1.3,1.8c.32.72.49,1.56.49,2.52v11.77h-4.1v-10.8c0-.6-.09-1.12-.27-1.55s-.42-.79-.72-1.06c-.3-.28-.64-.47-1.03-.59-.38-.12-.77-.18-1.15-.18-.5,0-1,.11-1.48.32-.48.22-.91.54-1.28.97-.37.43-.67.97-.88,1.62s-.32,1.39-.32,2.23v9.04h-4.1V8.59h0Z"/>
  <path class="cls-1" d="M598.85,21.98c0-.67.2-1.29.61-1.85s.98-1.01,1.73-1.35c-.62-.48-1.12-1.09-1.49-1.82s-.56-1.58-.56-2.54c0-1.01.2-1.91.61-2.7s.95-1.45,1.62-1.98,1.43-.93,2.29-1.21c.85-.28,1.73-.41,2.65-.41.77,0,1.49.09,2.16.27s1.26.39,1.76.63c.46-.38.96-.69,1.51-.92s1.22-.34,2.02-.34c.43,0,.83.04,1.19.11s.67.17.94.29l-.76,2.66c-.17-.17-.37-.28-.59-.34-.23-.06-.45-.09-.67-.09-.31,0-.58.04-.81.13-.23.08-.4.19-.52.31.41.43.72.96.94,1.58.22.62.32,1.27.32,1.94,0,.98-.2,1.85-.61,2.59s-.95,1.38-1.62,1.91-1.45.92-2.32,1.19c-.88.26-1.79.4-2.75.4-.7,0-1.24-.05-1.64-.14-.4-.1-.71-.14-.95-.14-.31,0-.63.1-.95.29-.32.19-.49.49-.49.9,0,.38.15.67.45.86.3.19.8.32,1.49.4l4.86.47c1.87.19,3.32.62,4.34,1.3,1.02.67,1.53,1.73,1.53,3.17,0,.98-.23,1.84-.68,2.57-.46.73-1.09,1.34-1.89,1.82s-1.75.83-2.84,1.06c-1.09.23-2.27.34-3.55.34-1.2,0-2.29-.1-3.26-.29-.97-.19-1.81-.49-2.52-.88s-1.25-.89-1.64-1.48c-.38-.59-.58-1.28-.58-2.07,0-.94.25-1.72.74-2.34.49-.62,1.11-1.09,1.85-1.4-.65-.31-1.13-.71-1.44-1.21-.31-.49-.47-1.05-.47-1.67v-.02ZM603.21,25.76c-.43.22-.77.53-1.03.94-.25.41-.38.9-.38,1.48,0,.86.41,1.48,1.22,1.85.82.37,1.9.56,3.24.56,1.56,0,2.8-.21,3.71-.63.91-.42,1.37-1.05,1.37-1.89,0-.58-.22-1-.65-1.28-.43-.28-1.15-.46-2.16-.56l-5.33-.47h.01ZM603.14,14.35c0,1.15.32,2,.95,2.56.64.55,1.42.83,2.36.83s1.76-.28,2.39-.83c.64-.55.95-1.4.95-2.56s-.32-2.02-.95-2.61c-.64-.59-1.43-.88-2.39-.88s-1.72.29-2.36.88-.95,1.46-.95,2.61Z"/>
  <path class="cls-1" d="M623.33,2.65c0,.74-.23,1.34-.7,1.8-.47.46-1.07.68-1.82.68s-1.35-.23-1.82-.68c-.47-.46-.7-1.06-.7-1.8s.23-1.34.7-1.8c.47-.46,1.07-.68,1.82-.68s1.35.23,1.82.68c.47.46.7,1.06.7,1.8ZM618.76,8.59h4.1v17.06h-4.1V8.59Z"/>
  <path class="cls-1" d="M628.05,8.59h3.92v2.59c.5-.89,1.19-1.62,2.05-2.2s1.97-.86,3.31-.86c.82,0,1.6.12,2.34.36.74.24,1.39.6,1.93,1.08s.97,1.08,1.3,1.8c.32.72.49,1.56.49,2.52v11.77h-4.1v-10.8c0-.6-.09-1.12-.27-1.55s-.42-.79-.72-1.06c-.3-.28-.64-.47-1.03-.59-.38-.12-.77-.18-1.15-.18-.5,0-1,.11-1.48.32-.48.22-.91.54-1.28.97-.37.43-.67.97-.88,1.62s-.32,1.39-.32,2.23v9.04h-4.1V8.59h0Z"/>
  <path class="cls-1" d="M662.93,21.91c-.67,1.3-1.6,2.32-2.79,3.08-1.19.76-2.68,1.13-4.48,1.13-1.3,0-2.47-.22-3.51-.65-1.04-.43-1.93-1.04-2.66-1.84-.73-.79-1.3-1.74-1.69-2.84s-.59-2.34-.59-3.71.2-2.57.59-3.67c.4-1.1.96-2.05,1.69-2.83.73-.78,1.61-1.39,2.63-1.82s2.15-.65,3.4-.65c1.37,0,2.56.24,3.56.72,1.01.48,1.84,1.12,2.5,1.93.66.8,1.15,1.74,1.48,2.81.32,1.07.49,2.18.49,3.33v1.15h-12.17c.02.65.12,1.27.29,1.87s.42,1.13.76,1.6c.34.47.76.84,1.28,1.12s1.16.41,1.93.41c1.06,0,1.87-.24,2.43-.72s1.01-1.09,1.35-1.84l3.53,1.4-.02.02ZM655.48,11.11c-1.22,0-2.17.4-2.84,1.19s-1.07,1.81-1.19,3.06h7.99c-.05-1.37-.43-2.42-1.15-3.15-.72-.73-1.66-1.1-2.81-1.1h0Z"/>
  <path class="cls-1" d="M682.01,21.91c-.67,1.3-1.6,2.32-2.79,3.08-1.19.76-2.68,1.13-4.48,1.13-1.3,0-2.47-.22-3.51-.65-1.04-.43-1.93-1.04-2.66-1.84-.73-.79-1.3-1.74-1.69-2.84s-.59-2.34-.59-3.71.2-2.57.59-3.67c.4-1.1.96-2.05,1.69-2.83.73-.78,1.61-1.39,2.63-1.82s2.15-.65,3.4-.65c1.37,0,2.56.24,3.56.72,1.01.48,1.84,1.12,2.5,1.93.66.8,1.15,1.74,1.48,2.81.32,1.07.49,2.18.49,3.33v1.15h-12.17c.02.65.12,1.27.29,1.87s.42,1.13.76,1.6c.34.47.76.84,1.28,1.12s1.16.41,1.93.41c1.06,0,1.87-.24,2.43-.72s1.01-1.09,1.35-1.84l3.53,1.4-.02.02ZM674.56,11.11c-1.22,0-2.17.4-2.84,1.19s-1.07,1.81-1.19,3.06h7.99c-.05-1.37-.43-2.42-1.15-3.15-.72-.73-1.66-1.1-2.81-1.1h0Z"/>
  <path class="cls-1" d="M696.59,12.3c-.26-.22-.57-.38-.92-.49s-.7-.16-1.06-.16c-.5,0-1,.11-1.49.32-.49.22-.94.55-1.33.99-.4.44-.71,1.01-.95,1.69s-.36,1.48-.36,2.39v8.6h-4.1V8.58h3.85v2.77c.48-1.08,1.15-1.89,2-2.43s1.87-.81,3.04-.81c.34,0,.7.03,1.08.09s.74.16,1.08.31l-.83,3.78h-.01Z"/>
  <path class="cls-1" d="M704.76,2.65c0,.74-.23,1.34-.7,1.8-.47.46-1.07.68-1.82.68s-1.35-.23-1.82-.68c-.47-.46-.7-1.06-.7-1.8s.23-1.34.7-1.8c.47-.46,1.07-.68,1.82-.68s1.35.23,1.82.68c.47.46.7,1.06.7,1.8ZM700.19,8.59h4.1v17.06h-4.1V8.59Z"/>
  <path class="cls-1" d="M709.48,8.59h3.92v2.59c.5-.89,1.19-1.62,2.05-2.2s1.97-.86,3.31-.86c.82,0,1.6.12,2.34.36.74.24,1.39.6,1.93,1.08s.97,1.08,1.3,1.8c.32.72.49,1.56.49,2.52v11.77h-4.1v-10.8c0-.6-.09-1.12-.27-1.55s-.42-.79-.72-1.06c-.3-.28-.64-.47-1.03-.59-.38-.12-.77-.18-1.15-.18-.5,0-1,.11-1.48.32-.48.22-.91.54-1.28.97-.37.43-.67.97-.88,1.62s-.32,1.39-.32,2.23v9.04h-4.1V8.59h0Z"/>
  <path class="cls-1" d="M728.96,21.98c0-.67.2-1.29.61-1.85s.98-1.01,1.73-1.35c-.62-.48-1.12-1.09-1.49-1.82s-.56-1.58-.56-2.54c0-1.01.2-1.91.61-2.7s.95-1.45,1.62-1.98,1.43-.93,2.29-1.21c.85-.28,1.73-.41,2.65-.41.77,0,1.49.09,2.16.27s1.26.39,1.76.63c.46-.38.96-.69,1.51-.92s1.22-.34,2.02-.34c.43,0,.83.04,1.19.11s.67.17.94.29l-.76,2.66c-.17-.17-.37-.28-.59-.34-.23-.06-.45-.09-.67-.09-.31,0-.58.04-.81.13-.23.08-.4.19-.52.31.41.43.72.96.94,1.58.22.62.32,1.27.32,1.94,0,.98-.2,1.85-.61,2.59s-.95,1.38-1.62,1.91-1.45.92-2.32,1.19c-.88.26-1.79.4-2.75.4-.7,0-1.24-.05-1.64-.14-.4-.1-.71-.14-.95-.14-.31,0-.63.1-.95.29-.32.19-.49.49-.49.9,0,.38.15.67.45.86.3.19.8.32,1.49.4l4.86.47c1.87.19,3.32.62,4.34,1.3,1.02.67,1.53,1.73,1.53,3.17,0,.98-.23,1.84-.68,2.57-.46.73-1.09,1.34-1.89,1.82s-1.75.83-2.84,1.06c-1.09.23-2.27.34-3.55.34-1.2,0-2.29-.1-3.26-.29-.97-.19-1.81-.49-2.52-.88s-1.25-.89-1.64-1.48c-.38-.59-.58-1.28-.58-2.07,0-.94.25-1.72.74-2.34.49-.62,1.11-1.09,1.85-1.4-.65-.31-1.13-.71-1.44-1.21-.31-.49-.47-1.05-.47-1.67v-.02ZM733.31,25.76c-.43.22-.77.53-1.03.94-.25.41-.38.9-.38,1.48,0,.86.41,1.48,1.22,1.85.82.37,1.9.56,3.24.56,1.56,0,2.8-.21,3.71-.63.91-.42,1.37-1.05,1.37-1.89,0-.58-.22-1-.65-1.28-.43-.28-1.15-.46-2.16-.56l-5.33-.47h.01ZM733.24,14.35c0,1.15.32,2,.95,2.56.64.55,1.42.83,2.36.83s1.76-.28,2.39-.83c.64-.55.95-1.4.95-2.56s-.32-2.02-.95-2.61c-.64-.59-1.43-.88-2.39-.88s-1.72.29-2.36.88-.95,1.46-.95,2.61Z"/>
  <path class="cls-1" d="M767.19,25.65c-.1-.17-.18-.46-.25-.86-.07-.41-.11-.85-.11-1.33-.55.79-1.25,1.43-2.11,1.93-.85.49-1.96.74-3.33.74-1.73,0-3.11-.43-4.16-1.3-1.04-.86-1.57-2.05-1.57-3.56,0-1.15.31-2.11.92-2.86.61-.76,1.43-1.36,2.45-1.82s2.2-.78,3.53-.97c1.33-.19,2.73-.29,4.19-.29v-1.08c0-.91-.25-1.65-.76-2.21-.5-.56-1.3-.85-2.38-.85s-1.88.26-2.41.79c-.53.53-.8,1.15-.83,1.87l-3.96-.58c.1-.84.35-1.58.77-2.21.42-.64.96-1.17,1.62-1.6s1.42-.76,2.27-.99c.85-.23,1.75-.34,2.68-.34,1.03,0,1.97.13,2.83.4.85.26,1.58.65,2.2,1.17s1.09,1.16,1.44,1.93.52,1.67.52,2.7v9c0,.53.04.97.11,1.31.07.35.17.69.29,1.03h-3.96v-.02ZM762.51,23.1c.53,0,1.05-.08,1.57-.25s.97-.41,1.37-.74c.4-.32.71-.71.95-1.17s.36-.98.36-1.58v-1.4c-2.11,0-3.82.23-5.11.68-1.3.46-1.94,1.25-1.94,2.38,0,.7.26,1.22.79,1.57.53.35,1.2.52,2.02.52h-.01Z"/>
  <path class="cls-1" d="M775.61,8.59h3.92v2.59c.5-.89,1.19-1.62,2.05-2.2s1.97-.86,3.31-.86c.82,0,1.6.12,2.34.36.74.24,1.39.6,1.93,1.08s.97,1.08,1.3,1.8c.32.72.49,1.56.49,2.52v11.77h-4.1v-10.8c0-.6-.09-1.12-.27-1.55s-.42-.79-.72-1.06c-.3-.28-.64-.47-1.03-.59-.38-.12-.77-.18-1.15-.18-.5,0-1,.11-1.48.32-.48.22-.91.54-1.28.97-.37.43-.67.97-.88,1.62s-.32,1.39-.32,2.23v9.04h-4.1V8.59h0Z"/>
  <path class="cls-1" d="M802.57,8.12c1.27,0,2.35.26,3.22.77.88.52,1.57,1.13,2.07,1.85V.44h4.07v25.2h-3.89v-2.52c-.24.38-.53.76-.86,1.12-.34.36-.73.68-1.19.95-.46.28-.98.5-1.57.67s-1.25.25-2,.25c-1.08,0-2.09-.21-3.02-.63-.94-.42-1.75-1.02-2.43-1.8s-1.22-1.72-1.62-2.83c-.4-1.1-.59-2.35-.59-3.74s.2-2.64.59-3.74c.4-1.1.95-2.05,1.66-2.83.71-.78,1.54-1.38,2.48-1.8.95-.42,1.97-.63,3.08-.63h0ZM807.87,16.22c0-.89-.14-1.64-.43-2.27-.29-.62-.65-1.13-1.08-1.51-.43-.38-.91-.66-1.44-.83-.53-.17-1.03-.25-1.51-.25-.7,0-1.31.14-1.85.43s-1,.69-1.39,1.21c-.38.52-.68,1.13-.88,1.84s-.31,1.47-.31,2.29.1,1.61.31,2.3c.2.7.49,1.3.86,1.82s.82.92,1.35,1.21c.53.29,1.13.43,1.8.43.5,0,1.02-.08,1.55-.25.53-.17,1.02-.44,1.48-.83.46-.38.83-.88,1.12-1.49s.43-1.37.43-2.29v-1.8h0Z"/>
  <path class="cls-1" d="M845.81,25.65h-4.43l-2.23-6.34h-9.5l-2.23,6.34h-4.18l9.14-25.2h4.32l9.11,25.2h0ZM834.33,5.42c-.07.24-.17.57-.31.99-.13.42-.29.9-.47,1.44-.18.54-.37,1.12-.58,1.73-.2.61-.41,1.22-.63,1.82-.48,1.42-1,2.94-1.55,4.57h7.2c-.58-1.63-1.1-3.16-1.58-4.57-.22-.6-.43-1.21-.63-1.82s-.4-1.19-.58-1.73-.34-1.02-.49-1.44c-.14-.42-.25-.75-.32-.99h-.07.01Z"/>
  <path class="cls-1" d="M858.48,26.12c-1.39,0-2.51-.26-3.37-.79-.85-.53-1.52-1.13-2-1.8v9.32h-4.1V8.59h3.92v2.52c.48-.84,1.18-1.55,2.11-2.12.92-.58,2.07-.86,3.44-.86,1.1,0,2.12.21,3.06.63s1.75,1.02,2.43,1.8,1.22,1.72,1.62,2.83c.4,1.1.59,2.35.59,3.74s-.2,2.64-.59,3.74c-.4,1.1-.94,2.05-1.62,2.83-.68.78-1.49,1.38-2.43,1.8-.94.42-1.96.63-3.06.63h0ZM853.08,17.95c0,.89.14,1.64.43,2.27.29.62.65,1.13,1.08,1.53.43.4.92.68,1.46.86s1.06.27,1.57.27c.67,0,1.28-.14,1.82-.43s1-.69,1.39-1.21c.38-.52.68-1.12.88-1.82s.31-1.46.31-2.3-.1-1.58-.31-2.29c-.2-.71-.5-1.32-.88-1.84s-.85-.92-1.39-1.21-1.15-.43-1.82-.43c-.5,0-1.03.09-1.57.27s-1.03.47-1.46.86c-.43.4-.79.91-1.08,1.53-.29.62-.43,1.38-.43,2.27v1.66h0Z"/>
  <path class="cls-1" d="M879.65,26.12c-1.39,0-2.51-.26-3.37-.79-.85-.53-1.52-1.13-2-1.8v9.32h-4.1V8.59h3.92v2.52c.48-.84,1.18-1.55,2.11-2.12.92-.58,2.07-.86,3.44-.86,1.1,0,2.12.21,3.06.63s1.75,1.02,2.43,1.8,1.22,1.72,1.62,2.83c.4,1.1.59,2.35.59,3.74s-.2,2.64-.59,3.74c-.4,1.1-.94,2.05-1.62,2.83-.68.78-1.49,1.38-2.43,1.8-.94.42-1.96.63-3.06.63h0ZM874.25,17.95c0,.89.14,1.64.43,2.27.29.62.65,1.13,1.08,1.53.43.4.92.68,1.46.86s1.06.27,1.57.27c.67,0,1.28-.14,1.82-.43s1-.69,1.39-1.21c.38-.52.68-1.12.88-1.82s.31-1.46.31-2.3-.1-1.58-.31-2.29c-.2-.71-.5-1.32-.88-1.84s-.85-.92-1.39-1.21-1.15-.43-1.82-.43c-.5,0-1.03.09-1.57.27s-1.03.47-1.46.86c-.43.4-.79.91-1.08,1.53-.29.62-.43,1.38-.43,2.27v1.66h0Z"/>
  <path class="cls-1" d="M891.35.45h4.1v25.2h-4.1s0-25.2,0-25.2Z"/>
  <path class="cls-1" d="M905.21,2.65c0,.74-.23,1.34-.7,1.8-.47.46-1.07.68-1.82.68s-1.35-.23-1.82-.68c-.47-.46-.7-1.06-.7-1.8s.23-1.34.7-1.8c.47-.46,1.07-.68,1.82-.68s1.35.23,1.82.68c.47.46.7,1.06.7,1.8ZM900.64,8.59h4.1v17.06h-4.1V8.59Z"/>
  <path class="cls-1" d="M924.47,21.91c-.67,1.3-1.6,2.32-2.79,3.08-1.19.76-2.68,1.13-4.48,1.13-1.3,0-2.47-.22-3.51-.65-1.04-.43-1.93-1.04-2.66-1.84-.73-.79-1.3-1.74-1.69-2.84s-.59-2.34-.59-3.71.2-2.57.59-3.67c.4-1.1.96-2.05,1.69-2.83.73-.78,1.61-1.39,2.63-1.82s2.15-.65,3.4-.65c1.37,0,2.56.24,3.56.72,1.01.48,1.84,1.12,2.5,1.93.66.8,1.15,1.74,1.48,2.81.32,1.07.49,2.18.49,3.33v1.15h-12.17c.02.65.12,1.27.29,1.87s.42,1.13.76,1.6c.34.47.76.84,1.28,1.12s1.16.41,1.93.41c1.06,0,1.87-.24,2.43-.72s1.01-1.09,1.35-1.84l3.53,1.4-.02.02ZM917.02,11.11c-1.22,0-2.17.4-2.84,1.19s-1.07,1.81-1.19,3.06h7.99c-.05-1.37-.43-2.42-1.15-3.15s-1.66-1.1-2.81-1.1h0Z"/>
  <path class="cls-1" d="M935.63,8.12c1.27,0,2.35.26,3.22.77.88.52,1.57,1.13,2.07,1.85V.44h4.07v25.2h-3.89v-2.52c-.24.38-.53.76-.86,1.12-.34.36-.73.68-1.19.95-.46.28-.98.5-1.57.67s-1.25.25-2,.25c-1.08,0-2.09-.21-3.02-.63-.94-.42-1.75-1.02-2.43-1.8s-1.22-1.72-1.62-2.83c-.4-1.1-.59-2.35-.59-3.74s.2-2.64.59-3.74c.4-1.1.95-2.05,1.66-2.83.71-.78,1.54-1.38,2.48-1.8s1.97-.63,3.08-.63h0ZM940.92,16.22c0-.89-.14-1.64-.43-2.27-.29-.62-.65-1.13-1.08-1.51-.43-.38-.91-.66-1.44-.83-.53-.17-1.03-.25-1.51-.25-.7,0-1.31.14-1.85.43s-1,.69-1.39,1.21-.68,1.13-.88,1.84-.31,1.47-.31,2.29.1,1.61.31,2.3c.2.7.49,1.3.86,1.82s.82.92,1.35,1.21,1.13.43,1.8.43c.5,0,1.02-.08,1.55-.25.53-.17,1.02-.44,1.48-.83.46-.38.83-.88,1.12-1.49s.43-1.37.43-2.29v-1.8h0Z"/>
  <path class="cls-1" d="M962.27,6.97c0,.6.1,1.1.31,1.51.2.41.54.76,1.01,1.06.47.3,1.08.56,1.84.77s1.67.41,2.75.58c1.44.24,2.71.55,3.82.94,1.1.38,2.03.87,2.77,1.46s1.3,1.3,1.67,2.12c.37.83.56,1.82.56,2.97s-.23,2.21-.7,3.17c-.47.96-1.12,1.78-1.96,2.45-.84.67-1.85,1.19-3.04,1.57-1.19.37-2.51.56-3.98.56-1.56,0-2.95-.2-4.16-.61s-2.24-.95-3.1-1.64c-.85-.68-1.51-1.49-1.96-2.41-.46-.92-.71-1.9-.76-2.93l4.21-.65c.05.62.19,1.23.43,1.82s.59,1.1,1.06,1.55c.47.44,1.05.8,1.75,1.06.7.26,1.54.4,2.52.4,1.61,0,2.89-.34,3.85-1.03.96-.68,1.44-1.7,1.44-3.04,0-.58-.1-1.08-.31-1.51-.2-.43-.53-.81-.99-1.13s-1.06-.6-1.8-.83c-.74-.23-1.66-.43-2.74-.59-1.34-.19-2.56-.46-3.65-.81-1.09-.35-2.02-.8-2.79-1.37-.77-.56-1.36-1.26-1.78-2.09-.42-.83-.63-1.82-.63-2.97s.22-2.22.67-3.13c.44-.91,1.07-1.68,1.89-2.3s1.78-1.1,2.9-1.42,2.35-.49,3.69-.49c2.57,0,4.69.59,6.35,1.78,1.67,1.19,2.71,2.85,3.11,4.99l-4.28.97c-.19-1.34-.72-2.4-1.58-3.17-.86-.77-2.1-1.15-3.71-1.15s-2.76.32-3.53.97-1.15,1.51-1.15,2.59v-.02Z"/>
  <path class="cls-1" d="M980.16,17.12c0-1.34.2-2.57.59-3.67.4-1.1.96-2.05,1.69-2.84s1.62-1.4,2.66-1.84c1.04-.43,2.23-.65,3.55-.65.98,0,1.85.12,2.61.36s1.42.57,2,.99c.58.42,1.06.92,1.46,1.49.4.58.74,1.2,1.03,1.87l-3.71,1.4c-.24-.91-.65-1.63-1.24-2.14-.59-.52-1.36-.77-2.32-.77-.72,0-1.34.16-1.85.49-.52.32-.94.75-1.28,1.28-.34.53-.58,1.15-.74,1.85-.16.71-.23,1.43-.23,2.18s.08,1.46.23,2.14.4,1.3.74,1.84.76.97,1.28,1.3c.52.32,1.15.49,1.89.49,1.01,0,1.77-.26,2.29-.79.52-.53.93-1.18,1.24-1.94l3.78,1.44c-.34.62-.73,1.21-1.17,1.76-.44.55-.95,1.03-1.53,1.44s-1.24.73-1.98.97c-.74.24-1.6.36-2.56.36-1.3,0-2.46-.22-3.49-.65s-1.91-1.04-2.65-1.82c-.73-.78-1.3-1.72-1.69-2.83-.4-1.1-.59-2.34-.59-3.71h-.01Z"/>
  <path class="cls-1" d="M1003.7,2.65c0,.74-.23,1.34-.7,1.8s-1.07.68-1.82.68-1.35-.23-1.82-.68c-.47-.46-.7-1.06-.7-1.8s.23-1.34.7-1.8,1.07-.68,1.82-.68,1.35.23,1.82.68c.47.46.7,1.06.7,1.8ZM999.13,8.59h4.1v17.06h-4.1V8.59Z"/>
  <path class="cls-1" d="M1022.96,21.91c-.67,1.3-1.6,2.32-2.79,3.08-1.19.76-2.68,1.13-4.48,1.13-1.3,0-2.47-.22-3.51-.65s-1.93-1.04-2.66-1.84c-.73-.79-1.3-1.74-1.69-2.84-.4-1.1-.59-2.34-.59-3.71s.2-2.57.59-3.67c.4-1.1.96-2.05,1.69-2.83.73-.78,1.61-1.39,2.63-1.82s2.15-.65,3.4-.65c1.37,0,2.56.24,3.56.72,1.01.48,1.84,1.12,2.5,1.93.66.8,1.15,1.74,1.48,2.81.32,1.07.49,2.18.49,3.33v1.15h-12.17c.02.65.12,1.27.29,1.87s.42,1.13.76,1.6c.34.47.76.84,1.28,1.12s1.16.41,1.93.41c1.06,0,1.87-.24,2.43-.72s1.01-1.09,1.35-1.84l3.53,1.4-.02.02ZM1015.51,11.11c-1.22,0-2.17.4-2.84,1.19s-1.07,1.81-1.19,3.06h7.99c-.05-1.37-.43-2.42-1.15-3.15s-1.66-1.1-2.81-1.1Z"/>
  <path class="cls-1" d="M1027.32,8.59h3.92v2.59c.5-.89,1.19-1.62,2.05-2.2.86-.58,1.97-.86,3.31-.86.82,0,1.6.12,2.34.36s1.39.6,1.93,1.08c.54.48.97,1.08,1.3,1.8.32.72.49,1.56.49,2.52v11.77h-4.1v-10.8c0-.6-.09-1.12-.27-1.55s-.42-.79-.72-1.06c-.3-.28-.64-.47-1.03-.59s-.77-.18-1.15-.18c-.5,0-1,.11-1.48.32-.48.22-.91.54-1.28.97s-.67.97-.88,1.62c-.22.65-.32,1.39-.32,2.23v9.04h-4.1V8.59h-.01Z"/>
  <path class="cls-1" d="M1046.47,17.12c0-1.34.2-2.57.59-3.67.4-1.1.96-2.05,1.69-2.84s1.62-1.4,2.66-1.84c1.04-.43,2.23-.65,3.55-.65.98,0,1.85.12,2.61.36s1.42.57,2,.99c.58.42,1.06.92,1.46,1.49.4.58.74,1.2,1.03,1.87l-3.71,1.4c-.24-.91-.65-1.63-1.24-2.14-.59-.52-1.36-.77-2.32-.77-.72,0-1.34.16-1.85.49-.52.32-.94.75-1.28,1.28-.34.53-.58,1.15-.74,1.85-.16.71-.23,1.43-.23,2.18s.08,1.46.23,2.14.4,1.3.74,1.84.76.97,1.28,1.3c.52.32,1.15.49,1.89.49,1.01,0,1.77-.26,2.29-.79.52-.53.93-1.18,1.24-1.94l3.78,1.44c-.34.62-.73,1.21-1.17,1.76-.44.55-.95,1.03-1.53,1.44s-1.24.73-1.98.97c-.74.24-1.6.36-2.56.36-1.3,0-2.46-.22-3.49-.65s-1.91-1.04-2.65-1.82c-.73-.78-1.3-1.72-1.69-2.83-.4-1.1-.59-2.34-.59-3.71h-.01Z"/>
  <path class="cls-1" d="M1079.98,21.91c-.67,1.3-1.6,2.32-2.79,3.08-1.19.76-2.68,1.13-4.48,1.13-1.3,0-2.47-.22-3.51-.65s-1.93-1.04-2.66-1.84c-.73-.79-1.3-1.74-1.69-2.84-.4-1.1-.59-2.34-.59-3.71s.2-2.57.59-3.67c.4-1.1.96-2.05,1.69-2.83.73-.78,1.61-1.39,2.63-1.82s2.15-.65,3.4-.65c1.37,0,2.56.24,3.56.72,1.01.48,1.84,1.12,2.5,1.93.66.8,1.15,1.74,1.48,2.81.32,1.07.49,2.18.49,3.33v1.15h-12.17c.02.65.12,1.27.29,1.87s.42,1.13.76,1.6c.34.47.76.84,1.28,1.12s1.16.41,1.93.41c1.06,0,1.87-.24,2.43-.72s1.01-1.09,1.35-1.84l3.53,1.4-.02.02ZM1072.53,11.11c-1.22,0-2.17.4-2.84,1.19s-1.07,1.81-1.19,3.06h7.99c-.05-1.37-.43-2.42-1.15-3.15s-1.66-1.1-2.81-1.1Z"/>
  <path class="cls-1" d="M1087.44,13.12c0,.77.32,1.3.97,1.58.65.29,1.5.52,2.56.68.89.12,1.74.29,2.56.52.82.23,1.53.54,2.14.94.61.4,1.1.9,1.48,1.51s.56,1.36.56,2.25c0,1.73-.67,3.08-2,4.05s-3.11,1.46-5.35,1.46c-2.11,0-3.84-.44-5.18-1.31-1.34-.88-2.11-2.15-2.3-3.83l3.96-.58c.1.96.46,1.66,1.08,2.09s1.45.65,2.48.65c.96,0,1.73-.18,2.32-.54s.88-.92.88-1.69c0-.67-.28-1.17-.83-1.49-.55-.32-1.54-.59-2.95-.81-.98-.14-1.87-.34-2.66-.59s-1.47-.58-2.03-.97c-.56-.4-1-.89-1.31-1.48s-.47-1.3-.47-2.14c0-.89.19-1.67.58-2.34.38-.67.9-1.22,1.55-1.66.65-.43,1.4-.76,2.25-.97.85-.22,1.73-.32,2.65-.32s1.81.11,2.63.32c.82.22,1.54.52,2.16.92s1.13.89,1.53,1.48.65,1.24.77,1.96l-3.96.83c-.12-.82-.44-1.45-.97-1.89s-1.27-.67-2.23-.67c-.79,0-1.46.17-2.02.52-.55.35-.83.86-.83,1.53h-.02Z"/>
</svg>